<mxfile host="app.diagrams.net" agent="Mozilla/5.0 (Windows NT 10.0; Win64; x64; rv:132.0) Gecko/20100101 Firefox/132.0" version="24.8.6">
  <diagram name="Page-1" id="DcJrfDeWkj5--GvmNkAw">
    <mxGraphModel dx="1050" dy="491" grid="1" gridSize="10" guides="1" tooltips="1" connect="1" arrows="1" fold="1" page="1" pageScale="1" pageWidth="850" pageHeight="1100" math="0" shadow="0">
      <root>
        <mxCell id="0" />
        <mxCell id="1" parent="0" />
        <mxCell id="yV2NKGVU8kxdVQWzcEJJ-1" value="Actor" style="shape=umlActor;verticalLabelPosition=bottom;verticalAlign=top;html=1;outlineConnect=0;" vertex="1" parent="1">
          <mxGeometry x="40" y="160" width="40" height="80" as="geometry" />
        </mxCell>
        <mxCell id="yV2NKGVU8kxdVQWzcEJJ-2" value="" style="rounded=1;whiteSpace=wrap;html=1;" vertex="1" parent="1">
          <mxGeometry x="200" y="40" width="610" height="440" as="geometry" />
        </mxCell>
        <mxCell id="yV2NKGVU8kxdVQWzcEJJ-3" value="Player enters a new floor" style="ellipse;whiteSpace=wrap;html=1;" vertex="1" parent="1">
          <mxGeometry x="200" y="150" width="120" height="80" as="geometry" />
        </mxCell>
        <mxCell id="yV2NKGVU8kxdVQWzcEJJ-4" value="Event is randomly placed on a acceptable tile " style="ellipse;whiteSpace=wrap;html=1;" vertex="1" parent="1">
          <mxGeometry x="320" y="60" width="120" height="80" as="geometry" />
        </mxCell>
        <mxCell id="yV2NKGVU8kxdVQWzcEJJ-5" value="" style="endArrow=classic;html=1;rounded=0;" edge="1" parent="1">
          <mxGeometry width="50" height="50" relative="1" as="geometry">
            <mxPoint x="300" y="160" as="sourcePoint" />
            <mxPoint x="330" y="130" as="targetPoint" />
          </mxGeometry>
        </mxCell>
        <mxCell id="yV2NKGVU8kxdVQWzcEJJ-6" value="Next even is placed on a random acceptable spot" style="ellipse;whiteSpace=wrap;html=1;" vertex="1" parent="1">
          <mxGeometry x="460" y="60" width="120" height="80" as="geometry" />
        </mxCell>
        <mxCell id="yV2NKGVU8kxdVQWzcEJJ-7" value="Incase the even tries to pick a spot that has already been taken by an event it rerolls location" style="ellipse;whiteSpace=wrap;html=1;" vertex="1" parent="1">
          <mxGeometry x="620" y="50" width="140" height="100" as="geometry" />
        </mxCell>
        <mxCell id="yV2NKGVU8kxdVQWzcEJJ-8" value="Next event is randomly placed" style="ellipse;whiteSpace=wrap;html=1;" vertex="1" parent="1">
          <mxGeometry x="630" y="200" width="120" height="80" as="geometry" />
        </mxCell>
        <mxCell id="yV2NKGVU8kxdVQWzcEJJ-9" value="Repeat process until all events have been placed" style="ellipse;whiteSpace=wrap;html=1;" vertex="1" parent="1">
          <mxGeometry x="480" y="320" width="120" height="80" as="geometry" />
        </mxCell>
        <mxCell id="yV2NKGVU8kxdVQWzcEJJ-10" value="" style="endArrow=classic;html=1;rounded=0;" edge="1" parent="1">
          <mxGeometry width="50" height="50" relative="1" as="geometry">
            <mxPoint x="640" y="260" as="sourcePoint" />
            <mxPoint x="590" y="320" as="targetPoint" />
          </mxGeometry>
        </mxCell>
        <mxCell id="yV2NKGVU8kxdVQWzcEJJ-11" value="" style="endArrow=classic;html=1;rounded=0;" edge="1" parent="1">
          <mxGeometry width="50" height="50" relative="1" as="geometry">
            <mxPoint x="430" y="99.5" as="sourcePoint" />
            <mxPoint x="460" y="99.5" as="targetPoint" />
          </mxGeometry>
        </mxCell>
        <mxCell id="yV2NKGVU8kxdVQWzcEJJ-13" value="" style="endArrow=classic;html=1;rounded=0;" edge="1" parent="1">
          <mxGeometry width="50" height="50" relative="1" as="geometry">
            <mxPoint x="570" y="99.5" as="sourcePoint" />
            <mxPoint x="620" y="99.5" as="targetPoint" />
          </mxGeometry>
        </mxCell>
        <mxCell id="yV2NKGVU8kxdVQWzcEJJ-14" value="" style="endArrow=classic;html=1;rounded=0;" edge="1" parent="1">
          <mxGeometry width="50" height="50" relative="1" as="geometry">
            <mxPoint x="689.5" y="150" as="sourcePoint" />
            <mxPoint x="689.5" y="200" as="targetPoint" />
          </mxGeometry>
        </mxCell>
        <mxCell id="yV2NKGVU8kxdVQWzcEJJ-15" value="" style="endArrow=classic;html=1;rounded=0;" edge="1" parent="1">
          <mxGeometry width="50" height="50" relative="1" as="geometry">
            <mxPoint x="480" y="359.5" as="sourcePoint" />
            <mxPoint x="390" y="359.5" as="targetPoint" />
          </mxGeometry>
        </mxCell>
        <mxCell id="yV2NKGVU8kxdVQWzcEJJ-16" value="All events have been placed" style="ellipse;whiteSpace=wrap;html=1;" vertex="1" parent="1">
          <mxGeometry x="260" y="320" width="120" height="80" as="geometry" />
        </mxCell>
        <mxCell id="yV2NKGVU8kxdVQWzcEJJ-17" value="" style="endArrow=classic;html=1;rounded=0;entryX=0.5;entryY=1;entryDx=0;entryDy=0;" edge="1" parent="1" target="yV2NKGVU8kxdVQWzcEJJ-6">
          <mxGeometry width="50" height="50" relative="1" as="geometry">
            <mxPoint x="540" y="320" as="sourcePoint" />
            <mxPoint x="590" y="270" as="targetPoint" />
          </mxGeometry>
        </mxCell>
      </root>
    </mxGraphModel>
  </diagram>
</mxfile>
